<?xml version="1.0" encoding="iso-8859-1"?>
<!-- Generator: Adobe Illustrator 16.0.0, SVG Export Plug-In . SVG Version: 6.00 Build 0)  -->
<!DOCTYPE svg PUBLIC "-//W3C//DTD SVG 1.1//EN" "http://www.w3.org/Graphics/SVG/1.1/DTD/svg11.dtd">
<svg version="1.1" id="Capa_1" xmlns="http://www.w3.org/2000/svg" xmlns:xlink="http://www.w3.org/1999/xlink" x="0px" y="0px"
	 width="80px" height="80px" viewBox="0 0 80 80" style="enable-background:new 0 0 80 80;" xml:space="preserve">
<g>
	<g>
		<polygon points="42.839,47.389 47.273,50.5 50.72,44.516 45.41,41.947 		"/>
		<path d="M41.867,29.177c0-2.134-1.735-3.87-3.871-3.87c-2.134,0-3.869,1.736-3.869,3.87c0,2.134,1.735,3.87,3.869,3.87
			C40.132,33.047,41.867,31.31,41.867,29.177z"/>
		<polygon points="33.797,42.944 30.806,47.155 34.15,50.403 37.304,44.535 		"/>
		<path d="M38.354,44.693l-2.849,5.301l5.978-3.22c0.166-0.091,0.368-0.078,0.523,0.03l0.002,0.002l2.156-4.562L38.354,44.693z"/>
		<polygon points="25.938,47.25 29.869,46.747 31.918,43.862 		"/>
		<path d="M40,0C17.908,0,0,17.909,0,40c0,22.092,17.908,40,40,40c22.092,0,40-17.908,40-40C80,17.909,62.092,0,40,0z
			 M37.997,20.829c4.603,0,8.348,3.745,8.348,8.348c0,4.491-7.67,12.133-7.996,12.456c-0.098,0.098-0.225,0.146-0.352,0.146
			c-0.127,0-0.254-0.048-0.352-0.146c-0.326-0.322-7.996-7.965-7.996-12.456C29.65,24.574,33.395,20.829,37.997,20.829z
			 M51.855,44.551l-3.988,6.924c-0.069,0.121-0.188,0.207-0.324,0.237c-0.139,0.029-0.28,0.003-0.396-0.079l-5.462-3.83
			l-7.171,3.861c-0.075,0.04-0.156,0.061-0.237,0.061c-0.074,0-0.146-0.021-0.214-0.055c-0.007-0.004-0.016-0.002-0.022-0.006
			c-0.021-0.011-0.032-0.029-0.051-0.042c-0.02-0.015-0.043-0.022-0.062-0.04l-3.954-3.841l-6.335,0.812l-0.147,0.082
			c-0.157,0.092-0.346,0.086-0.495,0l-0.484,0.062c-0.271,0.033-0.524-0.159-0.56-0.434c-0.036-0.273,0.159-0.523,0.433-0.56
			l0.932-0.119l10.048-5.69c0.001,0,0.002-0.002,0.002-0.002l0.016-0.008c0.012-0.008,0.025-0.006,0.037-0.012
			c0.051-0.023,0.103-0.041,0.158-0.047c0.027-0.003,0.054,0.001,0.082,0.003c0.045,0.002,0.088,0.011,0.132,0.024
			c0.015,0.006,0.03,0.003,0.044,0.01l4.17,1.893l6.976-2.938c0.006-0.002,0.01-0.001,0.016-0.003
			c0.043-0.018,0.088-0.021,0.134-0.025c0.021-0.002,0.042-0.01,0.063-0.01c0.065,0.003,0.133,0.018,0.195,0.047
			c0.001,0,0.001,0.001,0.002,0.002c0.001,0,0.001,0,0.002,0l6.246,3.023c0.125,0.061,0.219,0.17,0.26,0.303
			S51.924,44.43,51.855,44.551z"/>
	</g>
</g>
<g>
</g>
<g>
</g>
<g>
</g>
<g>
</g>
<g>
</g>
<g>
</g>
<g>
</g>
<g>
</g>
<g>
</g>
<g>
</g>
<g>
</g>
<g>
</g>
<g>
</g>
<g>
</g>
<g>
</g>
</svg>
